General

Format                           : Matroska
File size                        : 8.29 GiB
Duration                         : 2h 30mn
Overall bit rate                 : 7 868 Kbps
Encoded date                     : UTC 2010-05-17 08:35:47
Writing application              : mkvmerge v3.0.0 ('Hang up your Hang-Ups') built on Dec 12 2009 15:20:35


Video
ID                               : 1
Format                           : AVC
Format/Info                      : Advanced Video Codec
Format profile                   : High@L4.1
Format settings, CABAC           : Yes
Format settings, ReFrames        : 12 frames
Muxing mode                      : Container profile=Unknown@4.1
Codec ID                         : V_MPEG4/ISO/AVC
Duration                         : 2h 30mn
Bit rate                         : 6 356 Kbps
Width                            : 1 280 pixels
Height                           : 534 pixels
Display aspect ratio             : 2.35:1
Frame rate                       : 23.976 fps
Color space                      : YUV
Chroma subsampling               : 4:2:0
Bit depth                        : 8 bits
Scan type                        : Progressive
Bits/(Pixel*Frame)               : 0.388
Stream size                      : 6.53 GiB (79%)
Title                            : Armageddon.Bluray.720p.DTS.2Audio.x264-CHD
Language                         : English

Audio
ID                               : 2
Format                           : DTS
Format/Info                      : Digital Theater Systems
Codec ID                         : A_DTS
Duration                         : 2h 30mn
Bit rate mode                    : Constant
Bit rate                         : 1 510 Kbps
Channel(s)                       : 6 channels
Channel positions                : Front: L C R, Side: L R, LFE
Sampling rate                    : 48.0 KHz
Bit depth                        : 24 bits
Stream size                      : 1.59 GiB (19%)
Title                            : DTS MA Core 5.1ch 1536k English
Language                         : English

Text
ID                               : 3
Format                           : VobSub
Codec ID                         : S_VOBSUB
Codec ID/Info                    : The same subtitle format used on DVDs
Title                            : KOREAN SUB
Language                         : Korean

Comments:Great Video file for Large Screen HD Displays.  DTS Audio sounds great also.  
If you do not need the KOREAN Subtitles simply turn off like any DVD.  


IMB = tt0120591

image = MamDMaACm
